<?xml version="1.0" encoding="us-ascii" standalone="no"?><svg xmlns="http://www.w3.org/2000/svg" xmlns:xlink="http://www.w3.org/1999/xlink" contentStyleType="text/css" height="479px" preserveAspectRatio="none" style="width:328px;height:479px;background:#FFFFFF;" version="1.1" viewBox="0 0 328 479" width="328px" zoomAndPan="magnify"><defs/><g><text fill="#000000" font-family=".MAIN Inter.MAIN" font-size="14" font-weight="bold" lengthAdjust="spacing" textLength="201.4375" x="62.7813" y="29.5332">Exemple Projet &#8212; Home flow</text><rect fill="none" height="34.1875" style="stroke:#000000;stroke-width:1.5;" width="176" x="15" y="346.3281"/><line style="stroke:#181818;stroke-width:0.5;stroke-dasharray:5.0,5.0;" x1="22" x2="22" y1="121.2188" y2="397.5156"/><line style="stroke:#181818;stroke-width:0.5;stroke-dasharray:5.0,5.0;" x1="136.5" x2="136.5" y1="121.2188" y2="397.5156"/><line style="stroke:#181818;stroke-width:0.5;stroke-dasharray:5.0,5.0;" x1="293" x2="293" y1="121.2188" y2="397.5156"/><text fill="#000000" font-family=".MAIN Inter.MAIN" font-size="14" lengthAdjust="spacing" textLength="29" x="5" y="118.1426">User</text><ellipse cx="22.5" cy="52.1094" fill="#E2E2F0" rx="8" ry="8" style="stroke:#181818;stroke-width:0.5;"/><path d="M22.5,60.1094 L22.5,87.1094 M9.5,68.1094 L35.5,68.1094 M22.5,87.1094 L9.5,102.1094 M22.5,87.1094 L35.5,102.1094 " fill="none" style="stroke:#181818;stroke-width:0.5;"/><text fill="#000000" font-family=".MAIN Inter.MAIN" font-size="14" lengthAdjust="spacing" textLength="29" x="5" y="411.0488">User</text><ellipse cx="22.5" cy="422.625" fill="#E2E2F0" rx="8" ry="8" style="stroke:#181818;stroke-width:0.5;"/><path d="M22.5,430.625 L22.5,457.625 M9.5,438.625 L35.5,438.625 M22.5,457.625 L9.5,472.625 M22.5,457.625 L35.5,472.625 " fill="none" style="stroke:#181818;stroke-width:0.5;"/><rect fill="#F3F4F6" height="49.2188" rx="2.5" ry="2.5" style="stroke:#9CA3AF;stroke-width:0.5;" width="74" x="99.5" y="71"/><text fill="#000000" font-family=".MAIN Inter.MAIN" font-size="14" font-style="italic" lengthAdjust="spacing" textLength="60" x="106.5" y="92.5332">&#171;service&#187;</text><text fill="#000000" font-family=".MAIN Inter.MAIN" font-size="14" lengthAdjust="spacing" textLength="21" x="126" y="110.1426">API</text><rect fill="#F3F4F6" height="49.2188" rx="2.5" ry="2.5" style="stroke:#9CA3AF;stroke-width:0.5;" width="74" x="99.5" y="396.5156"/><text fill="#000000" font-family=".MAIN Inter.MAIN" font-size="14" font-style="italic" lengthAdjust="spacing" textLength="60" x="106.5" y="418.0488">&#171;service&#187;</text><text fill="#000000" font-family=".MAIN Inter.MAIN" font-size="14" lengthAdjust="spacing" textLength="21" x="126" y="435.6582">API</text><text fill="#000000" font-family=".MAIN Inter.MAIN" font-size="14" lengthAdjust="spacing" textLength="53" x="264" y="118.1426">Main DB</text><path d="M275.5,67.6094 C275.5,57.6094 293.5,57.6094 293.5,57.6094 C293.5,57.6094 311.5,57.6094 311.5,67.6094 L311.5,93.6094 C311.5,103.6094 293.5,103.6094 293.5,103.6094 C293.5,103.6094 275.5,103.6094 275.5,93.6094 L275.5,67.6094 " fill="#E2E2F0" style="stroke:#181818;stroke-width:1.5;"/><path d="M275.5,67.6094 C275.5,77.6094 293.5,77.6094 293.5,77.6094 C293.5,77.6094 311.5,77.6094 311.5,67.6094 " fill="none" style="stroke:#181818;stroke-width:1.5;"/><text fill="#000000" font-family=".MAIN Inter.MAIN" font-size="14" lengthAdjust="spacing" textLength="53" x="264" y="411.0488">Main DB</text><path d="M275.5,424.125 C275.5,414.125 293.5,414.125 293.5,414.125 C293.5,414.125 311.5,414.125 311.5,424.125 L311.5,450.125 C311.5,460.125 293.5,460.125 293.5,460.125 C293.5,460.125 275.5,460.125 275.5,450.125 L275.5,424.125 " fill="#E2E2F0" style="stroke:#181818;stroke-width:1.5;"/><path d="M275.5,424.125 C275.5,434.125 293.5,434.125 293.5,434.125 C293.5,434.125 311.5,434.125 311.5,424.125 " fill="none" style="stroke:#181818;stroke-width:1.5;"/><polygon fill="#181818" points="124.5,149.5703,134.5,153.5703,124.5,157.5703,128.5,153.5703" style="stroke:#181818;stroke-width:1.0;"/><line style="stroke:#181818;stroke-width:1.0;" x1="22.5" x2="130.5" y1="153.5703" y2="153.5703"/><text fill="#000000" font-family=".MAIN Inter.MAIN" font-size="13" lengthAdjust="spacing" textLength="90" x="34.5" y="148.7139">checkSession()</text><polygon fill="#181818" points="281.5,179.9219,291.5,183.9219,281.5,187.9219,285.5,183.9219" style="stroke:#181818;stroke-width:1.0;"/><line style="stroke:#181818;stroke-width:1.0;" x1="136.5" x2="287.5" y1="183.9219" y2="183.9219"/><text fill="#000000" font-family=".MAIN Inter.MAIN" font-size="13" lengthAdjust="spacing" textLength="133" x="148.5" y="179.0654">SELECT user by token</text><polygon fill="#181818" points="147.5,210.2734,137.5,214.2734,147.5,218.2734,143.5,214.2734" style="stroke:#181818;stroke-width:1.0;"/><line style="stroke:#181818;stroke-width:1.0;stroke-dasharray:2.0,2.0;" x1="141.5" x2="292.5" y1="214.2734" y2="214.2734"/><text fill="#000000" font-family=".MAIN Inter.MAIN" font-size="13" lengthAdjust="spacing" textLength="20" x="205" y="209.417">row</text><polygon fill="#181818" points="33.5,240.625,23.5,244.625,33.5,248.625,29.5,244.625" style="stroke:#181818;stroke-width:1.0;"/><line style="stroke:#181818;stroke-width:1.0;stroke-dasharray:2.0,2.0;" x1="27.5" x2="135.5" y1="244.625" y2="244.625"/><text fill="#000000" font-family=".MAIN Inter.MAIN" font-size="13" lengthAdjust="spacing" textLength="21" x="69" y="239.7686">ok?</text><line style="stroke:#181818;stroke-width:1.0;" x1="22.5" x2="64.5" y1="274.9766" y2="274.9766"/><line style="stroke:#181818;stroke-width:1.0;" x1="64.5" x2="64.5" y1="274.9766" y2="287.9766"/><line style="stroke:#181818;stroke-width:1.0;" x1="23.5" x2="64.5" y1="287.9766" y2="287.9766"/><polygon fill="#181818" points="33.5,283.9766,23.5,287.9766,33.5,291.9766,29.5,287.9766" style="stroke:#181818;stroke-width:1.0;"/><text fill="#000000" font-family=".MAIN Inter.MAIN" font-size="13" lengthAdjust="spacing" textLength="78" x="29.5" y="270.1201">renderHome()</text><line style="stroke:#181818;stroke-width:1.0;" x1="22.5" x2="64.5" y1="318.3281" y2="318.3281"/><line style="stroke:#181818;stroke-width:1.0;" x1="64.5" x2="64.5" y1="318.3281" y2="331.3281"/><line style="stroke:#181818;stroke-width:1.0;" x1="23.5" x2="64.5" y1="331.3281" y2="331.3281"/><polygon fill="#181818" points="33.5,327.3281,23.5,331.3281,33.5,335.3281,29.5,331.3281" style="stroke:#181818;stroke-width:1.0;"/><text fill="#000000" font-family=".MAIN Inter.MAIN" font-size="13" lengthAdjust="spacing" textLength="79" x="29.5" y="313.4717">promptLogin()</text><path d="M15,346.3281 L76,346.3281 L76,354.6797 L66,364.6797 L15,364.6797 L15,346.3281 " fill="#EEEEEE" style="stroke:#000000;stroke-width:1.5;"/><rect fill="none" height="34.1875" style="stroke:#000000;stroke-width:1.5;" width="176" x="15" y="346.3281"/><text fill="#000000" font-family=".MAIN Inter.MAIN" font-size="13" font-weight="bold" lengthAdjust="spacing" textLength="16" x="30" y="360.8232">alt</text><text fill="#000000" font-family=".MAIN Inter.MAIN" font-size="11" font-weight="bold" lengthAdjust="spacing" textLength="95" x="91" y="359.7471">[D&#233;j&#224; connect&#233; ?]</text><line style="stroke:#000000;stroke-width:1.0;stroke-dasharray:2.0,2.0;" x1="15" x2="191" y1="365.6797" y2="365.6797"/><text fill="#000000" font-family=".MAIN Inter.MAIN" font-size="11" font-weight="bold" lengthAdjust="spacing" textLength="29" x="20" y="377.0986">[Non]</text><!--SRC=[TP9DRjim48NtFCNOthIB16YT6cqGED1lAi2MXSW6kZDeSgmmaac5effqrqFq0Dtc7Bv9Jr9ATXJ5HSM5fFdUy3qEEE2u5HB1MymMj-Vk3Op2zY63Ds0PV5l2w8FRh1FaU5uGM_ZnqsGSlC9m4I_FvquKGoGDwgv-w_ZHAeL9LqWJnulY6xWWLIvaIJNTmOQoFDEgbjnJXT9Tkfx4TjEwCA6I9gQxdbzFazvHhXw5p61BYmhx11zgb0pdM5KqGwSGcGI6RT9_LGdLHZ1HKcaIodcpuUUUh8TTfJdgG-ZH5yyPE-5_X2Sd78NZy2AS44APiR_3LOLw2BG2PxsA227bQoiCdIHgMRgsNt1rPRNV1SFfb71gw8PM2CCv5H9yjzNvxhgT31dKyg5M1ZcKMZ7ajRRpHrEN_c6QxzwJ0KhUGTAumzdqw7G9x0vPdjgX2IMj-52s_EXW5Mam2xmbr3OJR7w0KJbAyeBFUbjfzVZIRwkjqIMe_BhpF9Qq3OJwgzgXDJnXDkYkD3ELYIODCS8K2C4JxahxJhIwHmD_Vlw2fXksHUFuzhI45WRy_VFz_ZSm9IKoit-6QuBska2i9B7cVm40]--></g></svg>